<?xml version="1.0" encoding="iso-8859-1"?>
<!-- Generator: Adobe Illustrator 16.1.1, SVG Export Plug-In . SVG Version: 6.00 Build 0)  -->
<!DOCTYPE svg PUBLIC "-//W3C//DTD SVG 1.1//EN" "http://www.w3.org/Graphics/SVG/1.1/DTD/svg11.dtd">
<svg version="1.1" id="illumination" xmlns="http://www.w3.org/2000/svg" xmlns:xlink="http://www.w3.org/1999/xlink" x="0px"
	 y="0px" width="1024px" height="768px" viewBox="0 0 1024 768" style="enable-background:new 0 0 1024 768;" xml:space="preserve">
<g>
	<path id="merry01" style="stroke:#000000;stroke-width:2;stroke-miterlimit:10;" d="M1.875,39.628l3.352-3.445
		c1.578,2.594,3.773,3.891,6.586,3.891c1.844,0,3.477-0.781,4.898-2.344s2.391-3.633,2.906-6.211l4.43-22.266
		c-0.797-0.125-1.352-0.188-1.664-0.188c-2.578,0-4.727,0.918-6.445,2.754s-2.578,4.121-2.578,6.855l-4.547,2.227
		c0.328-4.359,2.07-7.75,5.227-10.172s7.398-3.633,12.727-3.633h1.898c2.891,8.047,5,16.32,6.328,24.82l15.375-24.82l5.016-0.586
		l-1.781,7.523l-3.82,19.148c-0.328,1.703-0.492,3.063-0.492,4.078c0,1.375,0.836,2.063,2.508,2.063
		c0.828,0,1.938-0.086,3.328-0.258l-0.305,1.5l-11.578,2.297l6.07-30.516L33.281,38.034l-2.414,0.375v-0.68
		c0-6.109-1.492-13.695-4.477-22.758l-1.922,9.563c-2.344,11.797-7.453,17.695-15.328,17.695
		C6.391,42.229,3.969,41.362,1.875,39.628z"/>
	<path id="merry02" style="stroke:#000000;stroke-width:2;stroke-miterlimit:10;" d="M80.859,35.362l-0.352,1.805
		c-4.969,3.469-9.203,5.203-12.703,5.203c-2.219,0-4.02-0.776-5.402-2.33c-1.383-1.553-2.074-3.563-2.074-6.03
		c0-4.402,1.688-8.543,5.063-12.422s6.977-5.819,10.805-5.819c1.391,0,2.516,0.468,3.375,1.404s1.289,2.153,1.289,3.651
		c0,2.996-1.531,5.57-4.594,7.723s-6.719,3.229-10.969,3.229l-0.023,1.055c0,4.563,1.672,6.844,5.016,6.844
		C73.18,39.675,76.703,38.237,80.859,35.362z M65.344,30.347c3.5-0.281,6.234-1.184,8.203-2.707s2.953-3.496,2.953-5.918
		c0-2.391-0.867-3.586-2.602-3.586c-1.875,0-3.688,1.246-5.438,3.738S65.672,27.19,65.344,30.347z"/>
	<path id="merry03" style="stroke:#000000;stroke-width:2;stroke-miterlimit:10;" d="M88.219,42.065l1.734-7.212l2.273-11.449
		c0.234-1.155,0.352-2.154,0.352-2.997c0-1.342-0.469-2.014-1.406-2.014c-1.656,0-4.023,1.765-7.102,5.293l0.422-2.084
		c3.609-3.889,6.742-5.834,9.398-5.834c2.25,0,3.375,1.288,3.375,3.864c0,1.14-0.141,2.404-0.422,3.794l-1.125,5.645h0.305
		c1.859-3.91,4.059-7.104,6.598-9.584c2.539-2.479,4.863-3.719,6.973-3.719c1.094,0,2.07,0.245,2.93,0.733l-3.117,4.234
		c-0.922-0.609-1.703-0.913-2.344-0.913c-3.047,0-7.102,4.472-12.164,13.416l-1.711,8.546L88.219,42.065z"/>
	<path id="merry04" style="stroke:#000000;stroke-width:2;stroke-miterlimit:10;" d="M115.242,42.065l1.734-7.212l2.273-11.449
		c0.234-1.155,0.352-2.154,0.352-2.997c0-1.342-0.469-2.014-1.406-2.014c-1.656,0-4.023,1.765-7.102,5.293l0.422-2.084
		c3.609-3.889,6.742-5.834,9.398-5.834c2.25,0,3.375,1.288,3.375,3.864c0,1.14-0.141,2.404-0.422,3.794l-1.125,5.645h0.305
		c1.859-3.91,4.059-7.104,6.598-9.584c2.539-2.479,4.863-3.719,6.973-3.719c1.094,0,2.07,0.245,2.93,0.733l-3.117,4.234
		c-0.922-0.609-1.703-0.913-2.344-0.913c-3.047,0-7.102,4.472-12.164,13.416l-1.711,8.546L115.242,42.065z"/>
	<path id="merry05" style="stroke:#000000;stroke-width:2;stroke-miterlimit:10;" d="M141.422,56.714l3.234-3.281
		c1.547,0.906,3.203,1.359,4.969,1.359c2.172,0,3.863-0.773,5.074-2.32s2.309-4.359,3.293-8.438l3.633-14.977h-0.305
		c-1.828,3.719-3.688,6.77-5.578,9.152s-3.383,3.574-4.477,3.574c-1.141,0-1.996-0.613-2.566-1.84s-1.066-3.504-1.488-6.832
		l-1.125-9.117c-0.422-3.375-1.133-5.063-2.133-5.063c-0.969,0-2.539,1.367-4.711,4.102l0.469-2.391
		c2.453-3.25,4.773-4.875,6.961-4.875c1.25,0,2.141,0.563,2.672,1.688s1.031,3.492,1.5,7.102l0.984,7.828
		c0.359,2.797,0.953,4.195,1.781,4.195c0.969,0,2.336-1.352,4.102-4.055c0.313-0.5,2.055-3.398,5.227-8.695l1.781-7.5l4.992-0.281
		l-2.086,7.313l-4.102,16.664c-1.391,5.641-3.605,9.945-6.645,12.914s-6.762,4.453-11.168,4.453
		C144.039,57.394,142.609,57.167,141.422,56.714z"/>
	<path id="merry06" style="stroke:#000000;stroke-width:2;stroke-miterlimit:10;" d="M216.094,39.651c-4.969,2-9.328,3-13.078,3
		c-4.031,0-7.156-1.133-9.375-3.398s-3.328-5.453-3.328-9.563c0-6.516,2.129-12.059,6.387-16.629s9.41-6.855,15.457-6.855
		c3.609,0,6.961,0.454,10.055,1.36l-1.992,6.449h-1.477c0.156-0.735,0.234-1.337,0.234-1.806c0-1.36-0.742-2.462-2.227-3.307
		c-1.484-0.844-3.414-1.267-5.789-1.267c-3.578,0-6.711,1.595-9.398,4.785c-1.781,2.111-3.234,4.73-4.359,7.857
		s-1.688,6.09-1.688,8.889c0,3.378,0.887,6.036,2.66,7.975c1.773,1.939,4.207,2.908,7.301,2.908c3.469,0,7.156-0.875,11.063-2.625
		L216.094,39.651z"/>
	<path id="merry07" style="stroke:#000000;stroke-width:2;stroke-miterlimit:10;" d="M221.742,42.065l1.734-7.219l3.211-16.195
		c1.125-5.656,3.246-10.059,6.363-13.207s6.91-4.723,11.379-4.723c1.547,0,2.953,0.164,4.219,0.492l-3.211,3.352
		c-1.828-0.828-3.391-1.242-4.688-1.242c-2.484,0-4.352,0.903-5.602,2.708s-2.375,5.241-3.375,10.306l-2.531,12.732h0.375
		c1.938-4.003,4.141-7.221,6.609-9.653c2.469-2.432,4.758-3.648,6.867-3.648c2.578,0,3.867,1.422,3.867,4.266
		c0,0.938-0.133,2.063-0.398,3.375l-2.273,11.438c-0.359,1.797-0.539,2.969-0.539,3.516c0,0.984,0.462,1.477,1.387,1.477
		c1.567,0,3.901-1.719,7.004-5.156l-0.422,2.18c-3.429,3.672-6.504,5.508-9.228,5.508c-2.254,0-3.381-1.179-3.381-3.535
		c0-0.781,0.18-2.107,0.539-3.98l2.297-11.473c0.172-0.89,0.258-1.639,0.258-2.248c0-1.264-0.469-1.896-1.406-1.896
		c-2.969,0-7.109,4.729-12.422,14.187l-1.688,8.36L221.742,42.065z"/>
	<path id="merry08" style="stroke:#000000;stroke-width:2;stroke-miterlimit:10;" d="M256.172,42.065l1.734-7.212l2.273-11.449
		c0.234-1.155,0.352-2.154,0.352-2.997c0-1.342-0.469-2.014-1.406-2.014c-1.656,0-4.023,1.765-7.102,5.293l0.422-2.084
		c3.609-3.889,6.742-5.834,9.398-5.834c2.25,0,3.375,1.288,3.375,3.864c0,1.14-0.141,2.404-0.422,3.794l-1.125,5.645h0.305
		c1.859-3.91,4.059-7.104,6.598-9.584c2.539-2.479,4.863-3.719,6.973-3.719c1.094,0,2.07,0.245,2.93,0.733l-3.117,4.234
		c-0.922-0.609-1.703-0.913-2.344-0.913c-3.047,0-7.102,4.472-12.164,13.416l-1.711,8.546L256.172,42.065z"/>
	<path id="merry09" style="stroke:#000000;stroke-width:2;stroke-miterlimit:10;" d="M297.352,34.683l-0.422,2.18
		c-3.422,3.672-6.492,5.508-9.211,5.508c-2.25,0-3.375-1.18-3.375-3.539c0-0.797,0.18-2.109,0.539-3.938l1.617-8.156
		c0.438-2.313,0.656-3.852,0.656-4.617c0-1.313-0.508-1.969-1.523-1.969c-0.703,0-1.961,0.266-3.773,0.797l0.281-1.43l11.461-3.75
		l-1.781,7.5l-2.297,11.578c-0.359,1.813-0.539,2.969-0.539,3.469c0,1.016,0.461,1.523,1.383,1.523
		C291.914,39.839,294.242,38.12,297.352,34.683z M288.75,11.69l1.57-3.188l6.609-4.313l-2.016,4.313L288.75,11.69z"/>
	<path id="merry10" style="stroke:#000000;stroke-width:2;stroke-miterlimit:10;" d="M296.273,40.987l3.094-3.164
		c2.026,1.484,4.092,2.227,6.197,2.227c1.294,0,2.386-0.34,3.274-1.02s1.333-1.52,1.333-2.52c0-1.109-0.883-2.625-2.648-4.547
		l-2.133-2.344c-2.078-2.281-3.117-4.188-3.117-5.719c0-2.125,1.008-4.012,3.023-5.66s4.32-2.473,6.914-2.473
		c1.422,0,3.016,0.297,4.781,0.891l-1.031,5.18h-1.5l0.07-0.398c0.031-0.141,0.047-0.305,0.047-0.492
		c0-2.109-1.355-3.164-4.067-3.164c-3.039,0-4.558,1.219-4.558,3.656c0,1.234,0.906,2.875,2.719,4.922l1.922,2.133
		c2.094,2.359,3.141,4.297,3.141,5.813c0,2.094-1.109,3.961-3.328,5.602s-4.742,2.461-7.57,2.461
		C300.852,42.37,298.664,41.909,296.273,40.987z"/>
	<path id="merry11" style="stroke:#000000;stroke-width:2;stroke-miterlimit:10;" d="M326.977,18.065h-5.367l1.617-1.734h4.078
		l1.336-6.633l4.852-1.172l-1.547,7.805h8.836l-1.922,2.063c-2.016-0.219-3.805-0.328-5.367-0.328h-1.898l-3.188,16.055
		c-0.328,1.656-0.492,2.82-0.492,3.492c0,1.234,0.547,1.852,1.641,1.852c1.688,0,3.992-1.25,6.914-3.75l-0.422,2.156
		c-3.031,3-5.945,4.5-8.742,4.5c-2.656,0-3.984-1.469-3.984-4.406c0-1.047,0.172-2.438,0.516-4.172L326.977,18.065z"/>
	<path id="merry12" style="stroke:#000000;stroke-width:2;stroke-miterlimit:10;" d="M344.484,42.065l1.734-7.219l2.297-11.578
		c0.359-1.797,0.539-2.969,0.539-3.516c0-0.969-0.461-1.453-1.383-1.453c-1.531,0-3.859,1.717-6.984,5.151l0.422-2.153
		c3.406-3.686,6.477-5.529,9.211-5.529c2.25,0,3.375,1.181,3.375,3.542c0,0.797-0.18,2.119-0.539,3.964l-1.148,5.794h0.328
		c2-4.066,4.184-7.299,6.551-9.7s4.551-3.601,6.55-3.601c1.047,0,1.926,0.415,2.637,1.243c0.711,0.829,1.066,1.861,1.066,3.097
		c0,0.907-0.133,1.994-0.398,3.261l-1.125,5.701h0.328c1.734-3.91,3.781-7.104,6.141-9.583c2.359-2.479,4.523-3.718,6.492-3.718
		c2.766,0,4.148,1.469,4.148,4.406c0,0.875-0.125,1.953-0.375,3.234l-2.273,11.438c-0.359,1.797-0.539,2.969-0.539,3.516
		c0,0.984,0.461,1.477,1.383,1.477c1.547,0,3.875-1.717,6.984-5.15l-0.422,2.177c-3.412,3.669-6.488,5.504-9.229,5.504
		c-2.27,0-3.404-1.179-3.404-3.535c0-0.765,0.189-2.092,0.566-3.98l2.291-11.426c0.221-1.03,0.33-1.779,0.33-2.248
		c0-1.295-0.484-1.943-1.453-1.943c-2.719,0-6.656,4.69-11.813,14.07l-1.757,8.477l-4.594,0.281l3.68-18.59
		c0.203-1.03,0.305-1.779,0.305-2.248c0-1.327-0.469-1.99-1.406-1.99c-1.172,0-2.902,1.374-5.191,4.121s-4.52,6.126-6.691,10.137
		l-1.711,8.29L344.484,42.065z"/>
	<path id="merry13" style="stroke:#000000;stroke-width:2;stroke-miterlimit:10;" d="M410.375,29.058h-0.424
		c-1.765,3.922-3.888,7.121-6.369,9.598c-2.482,2.477-4.809,3.715-6.978,3.715c-3.295,0-4.941-2.063-4.941-6.188
		c0-4.547,1.813-9,5.438-13.359c3.75-4.516,8.328-6.773,13.734-6.773c2.234,0,4.57,0.094,7.008,0.281l-1.688,6.938l-2.273,11.578
		c-0.359,1.813-0.539,2.984-0.539,3.516c0,0.984,0.461,1.477,1.383,1.477c1.563,0,3.891-1.719,6.984-5.156l-0.422,2.18
		c-3.429,3.672-6.504,5.508-9.229,5.508c-2.27,0-3.404-1.18-3.404-3.539c0-0.781,0.188-2.109,0.565-3.984L410.375,29.058z
		 M412.259,19.683c-1.968-0.875-3.912-1.313-5.833-1.313c-2.843,0-5.116,1.797-6.818,5.391c-2,4.25-2.999,8.07-2.999,11.461
		c0,2.453,0.718,3.68,2.154,3.68c1.343,0,3.275-1.41,5.797-4.23s4.734-6.043,6.64-9.668L412.259,19.683z"/>
	<path id="merry14" style="stroke:#000000;stroke-width:2;stroke-miterlimit:10;" d="M421.031,40.987l3.094-3.164
		c2.026,1.484,4.093,2.227,6.197,2.227c1.294,0,2.386-0.34,3.274-1.02s1.333-1.52,1.333-2.52c0-1.109-0.883-2.625-2.648-4.547
		l-2.133-2.344c-2.078-2.281-3.117-4.188-3.117-5.719c0-2.125,1.008-4.012,3.023-5.66s4.32-2.473,6.914-2.473
		c1.422,0,3.016,0.297,4.781,0.891l-1.031,5.18h-1.5l0.07-0.398c0.031-0.141,0.047-0.305,0.047-0.492
		c0-2.109-1.355-3.164-4.067-3.164c-3.038,0-4.558,1.219-4.558,3.656c0,1.234,0.906,2.875,2.719,4.922l1.922,2.133
		c2.094,2.359,3.141,4.297,3.141,5.813c0,2.094-1.109,3.961-3.328,5.602s-4.742,2.461-7.57,2.461
		C425.609,42.37,423.421,41.909,421.031,40.987z"/>
</g>
</svg>
